<?xml version="1.0" encoding="utf-8"?>
<!-- Generator: Adobe Illustrator 26.5.0, SVG Export Plug-In . SVG Version: 6.00 Build 0)  -->
<svg version="1.1" id="Layer_1" xmlns="http://www.w3.org/2000/svg" xmlns:xlink="http://www.w3.org/1999/xlink" x="0px" y="0px"
	 viewBox="0 0 512 512" style="enable-background:new 0 0 512 512;" xml:space="preserve">
<style type="text/css">
	.st0{fill:#207245;}
	.st1{fill:#FFFFFF;}
</style>
<g id="XMLID_16_">
	<path id="XMLID_18_" class="st0" d="M302.37,5.85v46.52c58.22,0,116.44,0.15,174.67-0.15c4.97,0.15,16.38,0.15,21.36,0.73
		c9.8,1.17,12.87,5.27,13.46,15.21c0.29,5.12-0.15,14.04,0.15,19.02c-0.29,100.94-0.15,201.87-0.15,302.81
		c-0.29,16.97,0.15,50.76,0.15,50.76c0,5.85-1.9,8.92-4.68,10.53c-5.71,3.07-17.41,2.19-23.99,2.49
		c-60.27,0.15-120.54-0.15-180.96,0v52.37L0,459.63V52.52L302.37,5.85z"/>
	<path id="XMLID_22_" class="st1" d="M302.37,69.92c63.93,0,128,0,191.93,0c0,122.15,0,244.3,0,366.45c-63.93,0-128,0-191.93,0
		c0-11.7,0-23.26,0-34.96c15.51,0,31.01,0,46.52,0c0-13.6,0-27.21,0-40.67c-15.51,0-31.01,0-46.52,0c0-7.75,0-15.51,0-23.26
		c15.51,0,31.01,0,46.52,0c0-13.6,0-27.21,0-40.67c-15.51,0-31.01,0-46.52,0c0-7.75,0-15.51,0-23.26c15.51,0,31.01,0,46.52,0
		c0-13.6,0-27.21,0-40.67c-15.51,0-31.01,0-46.52,0c0-7.75,0-15.51,0-23.26c15.51,0,31.01,0,46.52,0c0-13.6,0-27.21,0-40.67
		c-15.51,0-31.01,0-46.52,0c0-7.75,0-15.51,0-23.26c15.51,0,31.01,0,46.52,0c0-13.6,0-27.21,0-40.67c-15.51,0-31.01,0-46.52,0
		C302.37,93.18,302.37,81.48,302.37,69.92z"/>
	<path id="XMLID_23_" class="st0" d="M372.15,104.74c27.21,0,54.27,0,81.48,0c0,13.6,0,27.21,0,40.67c-27.21,0-54.27,0-81.48,0
		C372.15,131.95,372.15,118.35,372.15,104.74z"/>
	<path id="XMLID_24_" class="st1" d="M172.32,159.31c13.17-0.88,26.33-1.76,39.5-2.34c-15.51,31.74-31.16,63.63-46.96,95.38
		c15.95,32.62,32.33,64.95,48.42,97.43c-14.04-0.88-27.94-1.76-41.98-2.63c-9.95-24.28-21.94-47.69-28.96-73
		c-7.9,23.55-19.16,45.93-28.23,69.05c-12.73-0.15-25.45-0.73-38.18-1.17c14.92-29.26,29.4-58.81,44.76-87.77
		c-13.02-29.99-27.5-59.39-40.96-89.09c12.73-0.73,25.6-1.46,38.33-2.19c8.63,22.67,18.14,45.2,25.31,68.46
		C150.97,206.41,162.38,183.15,172.32,159.31z"/>
	<path id="XMLID_25_" class="st0" d="M372.15,168.81c27.21,0,54.27,0,81.48,0c0,13.6,0,27.21,0,40.67c-27.21,0-54.27,0-81.48,0
		C372.15,195.88,372.15,182.27,372.15,168.81z"/>
	<path id="XMLID_26_" class="st0" d="M372.15,232.74c27.21,0,54.27,0,81.48,0c0,13.6,0,27.21,0,40.67c-27.21,0-54.27,0-81.48,0
		C372.15,259.95,372.15,246.35,372.15,232.74z"/>
	<path id="XMLID_27_" class="st0" d="M372.15,296.67c27.21,0,54.27,0,81.48,0c0,13.6,0,27.21,0,40.67c-27.21,0-54.27,0-81.48,0
		C372.15,323.88,372.15,310.27,372.15,296.67z"/>
	<path id="XMLID_28_" class="st0" d="M372.15,360.74c27.21,0,54.27,0,81.48,0c0,13.6,0,27.21,0,40.67c-27.21,0-54.27,0-81.48,0
		C372.15,387.8,372.15,374.2,372.15,360.74z"/>
</g>
</svg>
